<svg width="300" height="300" viewBox="0 0 300 300" fill="none" xmlns="http://www.w3.org/2000/svg">
<rect width="300" height="300" rx="36" fill="#004908"/>
<path d="M212.8 165.7L234.1 165.4V177.7C231.7 177.3 228.9 177.1 225.7 177.1C222.5 177.1 218.9 177.3 214.9 177.7C214.9 193.1 207.5 208.7 192.7 224.5C177.9 240.3 160 253.1 139 262.9C118.2 272.9 98.8 277.9 80.8 277.9C71.4 277.9 63.7 275.5 57.7 270.7C51.9 265.9 49 259.6 49 251.8C49 240.2 56.7 228.1 72.1 215.5C87.5 202.9 105.5 192.5 126.1 184.3C146.7 176.1 165.3 171.3 181.9 169.9C179.9 166.9 176.8 164.3 172.6 162.1C168.4 159.9 159.8 156.5 146.8 151.9C133.8 147.1 124.6 141.9 119.2 136.3C113.8 130.5 111.1 122.4 111.1 112C111.1 101.6 116.7 89.7 127.9 76.3C139.1 62.9 152.3 51.7 167.5 42.7C182.9 33.5 196.4 28.9 208 28.9C213.2 28.9 217.5 30.8 220.9 34.6C224.3 38.2 226 42.7 226 48.1C226 56.9 220.7 68 210.1 81.4C199.5 94.6 187.7 104.7 174.7 111.7L167.5 101.5C175.3 97.5 182.1 91.3 187.9 82.9C193.9 74.3 196.9 66.9 196.9 60.7C196.9 54.5 193.6 51.4 187 51.4C177.6 51.4 166.8 57.3 154.6 69.1C142.6 80.7 136.6 91.6 136.6 101.8C136.6 108.8 138.4 114.3 142 118.3C145.6 122.3 154.7 127.3 169.3 133.3C183.9 139.1 194.3 144.3 200.5 148.9C206.7 153.3 210.8 158.9 212.8 165.7ZM79 244C79 253.6 86.8 258.4 102.4 258.4C111 258.4 122.1 255.2 135.7 248.8C149.5 242.6 161.6 233.8 172 222.4C182.6 211.2 187.9 199.7 187.9 187.9C187.9 186.5 187.6 184.4 187 181.6C159.6 184.2 134.7 191.9 112.3 204.7C90.1 217.5 79 230.6 79 244Z" fill="white"/>
</svg>
