<svg width="830" height="300" viewBox="0 0 830 300" fill="none" xmlns="http://www.w3.org/2000/svg">
<rect width="300" height="300" rx="36" fill="#004908"/>
<path d="M212.8 165.7L234.1 165.4V177.7C231.7 177.3 228.9 177.1 225.7 177.1C222.5 177.1 218.9 177.3 214.9 177.7C214.9 193.1 207.5 208.7 192.7 224.5C177.9 240.3 160 253.1 139 262.9C118.2 272.9 98.8 277.9 80.8 277.9C71.4 277.9 63.7 275.5 57.7 270.7C51.9 265.9 49 259.6 49 251.8C49 240.2 56.7 228.1 72.1 215.5C87.5 202.9 105.5 192.5 126.1 184.3C146.7 176.1 165.3 171.3 181.9 169.9C179.9 166.9 176.8 164.3 172.6 162.1C168.4 159.9 159.8 156.5 146.8 151.9C133.8 147.1 124.6 141.9 119.2 136.3C113.8 130.5 111.1 122.4 111.1 112C111.1 101.6 116.7 89.7 127.9 76.3C139.1 62.9 152.3 51.7 167.5 42.7C182.9 33.5 196.4 28.9 208 28.9C213.2 28.9 217.5 30.8 220.9 34.6C224.3 38.2 226 42.7 226 48.1C226 56.9 220.7 68 210.1 81.4C199.5 94.6 187.7 104.7 174.7 111.7L167.5 101.5C175.3 97.5 182.1 91.3 187.9 82.9C193.9 74.3 196.9 66.9 196.9 60.7C196.9 54.5 193.6 51.4 187 51.4C177.6 51.4 166.8 57.3 154.6 69.1C142.6 80.7 136.6 91.6 136.6 101.8C136.6 108.8 138.4 114.3 142 118.3C145.6 122.3 154.7 127.3 169.3 133.3C183.9 139.1 194.3 144.3 200.5 148.9C206.7 153.3 210.8 158.9 212.8 165.7ZM79 244C79 253.6 86.8 258.4 102.4 258.4C111 258.4 122.1 255.2 135.7 248.8C149.5 242.6 161.6 233.8 172 222.4C182.6 211.2 187.9 199.7 187.9 187.9C187.9 186.5 187.6 184.4 187 181.6C159.6 184.2 134.7 191.9 112.3 204.7C90.1 217.5 79 230.6 79 244Z" fill="white"/>
<path d="M328.3 291V282H355.8C357.667 282 358.6 281 358.6 279V263.8H357C356.4 265.133 355.467 266.433 354.2 267.7C353 268.9 351.367 269.9 349.3 270.7C347.233 271.5 344.633 271.9 341.5 271.9C337.767 271.9 334.433 271.067 331.5 269.4C328.567 267.733 326.267 265.367 324.6 262.3C322.933 259.233 322.1 255.6 322.1 251.4V221.7H332.4V250.6C332.4 254.867 333.467 258.033 335.6 260.1C337.733 262.1 340.7 263.1 344.5 263.1C348.7 263.1 352.067 261.7 354.6 258.9C357.2 256.1 358.5 252.033 358.5 246.7V221.7H368.8V281.1C368.8 284.1 367.9 286.5 366.1 288.3C364.367 290.1 361.967 291 358.9 291H328.3ZM384.026 271V201H394.326V271H384.026ZM409.612 271V201H419.912V228.7H421.512C422.178 227.433 423.112 226.2 424.312 225C425.578 223.8 427.212 222.833 429.212 222.1C431.278 221.3 433.878 220.9 437.012 220.9C440.745 220.9 444.045 221.733 446.912 223.4C449.845 225.067 452.145 227.433 453.812 230.5C455.478 233.5 456.312 237.133 456.312 241.4V271H446.012V242.2C446.012 237.933 444.945 234.8 442.812 232.8C440.678 230.733 437.745 229.7 434.012 229.7C429.745 229.7 426.312 231.1 423.712 233.9C421.178 236.7 419.912 240.767 419.912 246.1V271H409.612ZM493.735 272.4C488.735 272.4 484.368 271.367 480.635 269.3C476.902 267.167 473.968 264.2 471.835 260.4C469.768 256.533 468.735 252.067 468.735 247V245.8C468.735 240.667 469.768 236.2 471.835 232.4C473.902 228.533 476.768 225.567 480.435 223.5C484.168 221.367 488.468 220.3 493.335 220.3C498.068 220.3 502.202 221.367 505.735 223.5C509.335 225.567 512.135 228.467 514.135 232.2C516.135 235.933 517.135 240.3 517.135 245.3V249.2H479.235C479.368 253.533 480.802 257 483.535 259.6C486.335 262.133 489.802 263.4 493.935 263.4C497.802 263.4 500.702 262.533 502.635 260.8C504.635 259.067 506.168 257.067 507.235 254.8L515.735 259.2C514.802 261.067 513.435 263.033 511.635 265.1C509.902 267.167 507.602 268.9 504.735 270.3C501.868 271.7 498.202 272.4 493.735 272.4ZM479.335 241.3H506.635C506.368 237.567 505.035 234.667 502.635 232.6C500.235 230.467 497.102 229.4 493.235 229.4C489.368 229.4 486.202 230.467 483.735 232.6C481.335 234.667 479.868 237.567 479.335 241.3ZM546.178 271C543.178 271 540.778 270.1 538.978 268.3C537.245 266.5 536.378 264.1 536.378 261.1V230.4H522.778V221.7H536.378V205.4H546.678V221.7H561.378V230.4H546.678V259.3C546.678 261.3 547.611 262.3 549.478 262.3H559.778V271H546.178ZM573.479 271V221.7H583.779V271H573.479ZM578.679 215C576.679 215 574.979 214.367 573.579 213.1C572.246 211.767 571.579 210.067 571.579 208C571.579 205.933 572.246 204.267 573.579 203C574.979 201.667 576.679 201 578.679 201C580.746 201 582.446 201.667 583.779 203C585.112 204.267 585.779 205.933 585.779 208C585.779 210.067 585.112 211.767 583.779 213.1C582.446 214.367 580.746 215 578.679 215ZM598.765 271V201H609.565V261.2H643.265V271H598.765ZM668.759 272.4C665.226 272.4 662.059 271.8 659.259 270.6C656.526 269.4 654.326 267.633 652.659 265.3C651.059 262.967 650.259 260.133 650.259 256.8C650.259 253.4 651.059 250.6 652.659 248.4C654.326 246.133 656.559 244.433 659.359 243.3C662.226 242.167 665.459 241.6 669.059 241.6H684.059V238.4C684.059 235.533 683.193 233.233 681.459 231.5C679.726 229.767 677.059 228.9 673.459 228.9C669.926 228.9 667.226 229.733 665.359 231.4C663.493 233.067 662.259 235.233 661.659 237.9L652.059 234.8C652.859 232.133 654.126 229.733 655.859 227.6C657.659 225.4 660.026 223.633 662.959 222.3C665.893 220.967 669.426 220.3 673.559 220.3C679.959 220.3 684.993 221.933 688.659 225.2C692.326 228.467 694.159 233.1 694.159 239.1V259.4C694.159 261.4 695.093 262.4 696.959 262.4H701.159V271H693.459C691.126 271 689.226 270.4 687.759 269.2C686.293 268 685.559 266.367 685.559 264.3V264H684.059C683.526 265 682.726 266.167 681.659 267.5C680.593 268.833 679.026 270 676.959 271C674.893 271.933 672.159 272.4 668.759 272.4ZM670.259 263.9C674.393 263.9 677.726 262.733 680.259 260.4C682.793 258 684.059 254.733 684.059 250.6V249.6H669.659C666.926 249.6 664.726 250.2 663.059 251.4C661.393 252.533 660.559 254.233 660.559 256.5C660.559 258.767 661.426 260.567 663.159 261.9C664.893 263.233 667.259 263.9 670.259 263.9ZM711.174 271V221.7H721.274V229.1H722.874C723.808 227.1 725.474 225.233 727.874 223.5C730.274 221.767 733.841 220.9 738.574 220.9C742.308 220.9 745.608 221.733 748.474 223.4C751.408 225.067 753.708 227.433 755.374 230.5C757.041 233.5 757.874 237.133 757.874 241.4V271H747.574V242.2C747.574 237.933 746.508 234.8 744.374 232.8C742.241 230.733 739.308 229.7 735.574 229.7C731.308 229.7 727.874 231.1 725.274 233.9C722.741 236.7 721.474 240.767 721.474 246.1V271H711.174ZM770.298 246.6V245.1C770.298 239.9 771.331 235.467 773.398 231.8C775.531 228.133 778.331 225.3 781.798 223.3C785.264 221.3 789.064 220.3 793.198 220.3C797.998 220.3 801.664 221.2 804.198 223C806.798 224.8 808.698 226.733 809.898 228.8H811.498V221.7H821.498V281.1C821.498 284.1 820.598 286.5 818.798 288.3C817.064 290.1 814.664 291 811.598 291H778.398V282H808.398C810.331 282 811.298 281 811.298 279V263.3H809.698C808.964 264.5 807.931 265.733 806.598 267C805.264 268.267 803.498 269.3 801.298 270.1C799.164 270.9 796.464 271.3 793.198 271.3C789.064 271.3 785.231 270.333 781.698 268.4C778.231 266.4 775.464 263.567 773.398 259.9C771.331 256.167 770.298 251.733 770.298 246.6ZM795.998 262.3C800.464 262.3 804.131 260.9 806.998 258.1C809.931 255.233 811.398 251.3 811.398 246.3V245.4C811.398 240.267 809.964 236.333 807.098 233.6C804.231 230.8 800.531 229.4 795.998 229.4C791.598 229.4 787.931 230.8 784.998 233.6C782.131 236.333 780.698 240.267 780.698 245.4V246.3C780.698 251.3 782.131 255.233 784.998 258.1C787.931 260.9 791.598 262.3 795.998 262.3Z" fill="#004908"/>
</svg>
